# xmcd
#
# Track frame offsets: 
#        150
#        15827
#        30681
#        41026
#        59927
#        72718
#        90575
#        102414
#        120726
#        134209
#        147873
#
# Disc length: 2218 seconds
#
# Revision: 1
# Processed by: cddbd v1.5.2PL0 Copyright (c) Steve Scherf et al.
# Submitted via: ExactAudioCopy v0.99pb5
#
DISCID=a808a80b
DTITLE=Muskellunge - The Way That You Carry It
DYEAR=2012
DGENRE=Bluegrass
TTITLE0=The Load
TTITLE1=Small Town Stars
TTITLE2=Wastewater
TTITLE3=First Ride of Spring
TTITLE4=Ariadne's Thread
TTITLE5=Early Grapes
TTITLE6=Start All Over
TTITLE7=Song of the Swallow
TTITLE8=Soldier's Joy
TTITLE9=Home
TTITLE10=Ovation
EXTD=
EXTT0=
EXTT1=
EXTT2=
EXTT3=
EXTT4=
EXTT5=
EXTT6=
EXTT7=
EXTT8=
EXTT9=
EXTT10=
PLAYORDER=
